<svg width="14" height="14" viewBox="0 0 14 14" fill="none" xmlns="http://www.w3.org/2000/svg">
<path d="M5.25001 0L5.09601 1.844C4.51116 2.06059 3.96741 2.37507 3.48801 2.774L1.81201 1.984L0.0620117 5.016L1.58401 6.072C1.52981 6.3784 1.50171 6.68885 1.50001 7C1.50016 7.31237 1.52693 7.62417 1.58001 7.932L0.0620117 8.984L1.81201 12.015L3.48401 11.228C3.96506 11.6252 4.51017 11.9376 5.09601 12.152L5.25001 14H8.75001L8.90401 12.156C9.48886 11.9394 10.0326 11.6249 10.512 11.226L12.187 12.016L13.937 8.984L12.416 7.928C12.4702 7.6216 12.4983 7.31115 12.5 7C12.4999 6.68763 12.4731 6.37583 12.42 6.068L13.938 5.016L12.188 1.984L10.516 2.772C10.035 2.37481 9.48986 2.06235 8.90401 1.848L8.75001 0H5.25001ZM7.00001 5C7.53044 5 8.03915 5.21071 8.41422 5.58579C8.7893 5.96086 9.00001 6.46957 9.00001 7C9.00001 7.53043 8.7893 8.03914 8.41422 8.41421C8.03915 8.78929 7.53044 9 7.00001 9C6.46958 9 5.96087 8.78929 5.5858 8.41421C5.21073 8.03914 5.00001 7.53043 5.00001 7C5.00001 6.46957 5.21073 5.96086 5.5858 5.58579C5.96087 5.21071 6.46958 5 7.00001 5V5Z" fill="#C9C9C9"/>
</svg>
