<svg width="11" height="17" viewBox="0 0 11 17" fill="none" xmlns="http://www.w3.org/2000/svg">
<path d="M5.5 0.0200195C2.453 0.0200195 0 2.69602 0 6.02002V10.02C0 13.344 2.453 16.02 5.5 16.02C8.547 16.02 11 13.344 11 10.02V6.02002C11 2.69602 8.547 0.0200195 5.5 0.0200195ZM5.46 2.08202C5.52712 2.08097 5.59376 2.09344 5.65595 2.1187C5.71815 2.14395 5.77462 2.18147 5.822 2.22902L8.822 5.22902C8.87179 5.27866 8.91056 5.33825 8.93576 5.40389C8.96097 5.46953 8.97204 5.53975 8.96827 5.60996C8.96449 5.68017 8.94595 5.7488 8.91386 5.81136C8.88176 5.87392 8.83683 5.929 8.782 5.97302L6.145 8.08302L8.781 10.192C8.8359 10.236 8.88091 10.291 8.9131 10.3535C8.94528 10.416 8.96392 10.4846 8.96779 10.5549C8.97166 10.6251 8.96067 10.6953 8.93555 10.761C8.91043 10.8267 8.87174 10.8863 8.822 10.936L5.822 13.936C5.75208 14.0057 5.66309 14.0532 5.56624 14.0724C5.4694 14.0916 5.36903 14.0817 5.27781 14.0439C5.18658 14.0062 5.10857 13.9422 5.05362 13.8602C4.99866 13.7782 4.96922 13.6817 4.969 13.583V9.02302L2.781 10.773C2.67714 10.851 2.54699 10.8856 2.4181 10.8693C2.28922 10.8531 2.17172 10.7873 2.09049 10.6859C2.00926 10.5845 1.97068 10.4555 1.9829 10.3262C1.99513 10.1969 2.05721 10.0774 2.156 9.99302L4.543 8.08302L2.156 6.17302C2.10245 6.13279 2.05753 6.08222 2.0239 6.02429C1.99028 5.96637 1.96863 5.90229 1.96025 5.83584C1.95187 5.76939 1.95692 5.70193 1.97511 5.63748C1.99329 5.57302 2.02425 5.51287 2.06613 5.4606C2.10801 5.40834 2.15996 5.36502 2.2189 5.33322C2.27785 5.30142 2.34258 5.28178 2.40926 5.27548C2.47593 5.26917 2.5432 5.27633 2.60706 5.29652C2.67092 5.31671 2.73007 5.34953 2.781 5.39302L4.969 7.14302V2.58302C4.96898 2.45179 5.02056 2.32581 5.11261 2.23226C5.20465 2.13872 5.32978 2.08512 5.461 2.08302L5.46 2.08202ZM5.97 3.79002V6.94302L7.722 5.54302L5.97 3.79002ZM5.97 9.22402V12.376L7.722 10.624L5.97 9.22402Z" fill="#94EBEB"/>
</svg>
