<svg width="16" height="11" viewBox="0 0 16 11" fill="none" xmlns="http://www.w3.org/2000/svg">
<path fill-rule="evenodd" clip-rule="evenodd" d="M8 0.00300598C6.45 0.018006 4.888 0.373006 3.537 1.13801C2.999 1.48801 2.352 1.94101 1.865 2.39801C1.1 3.14801 0.443 4.02401 0 5.00301C1.215 7.68301 3.886 9.64701 6.824 9.93701C8.752 10.155 10.769 9.82201 12.463 8.86801C13.001 8.51801 13.648 8.06501 14.135 7.60801C14.901 6.85801 15.557 5.98201 16 5.00301C14.785 2.32301 12.114 0.359006 9.176 0.069006C8.786 0.024006 8.393 0.00300598 8 0.00300598ZM8 2.00301C9.607 1.96701 11.03 3.40501 11 5.00301C11.051 6.76901 9.291 8.29301 7.55 7.96301C5.793 7.75801 4.559 5.78601 5.137 4.11601C5.506 2.88601 6.713 1.98801 8 2.00301ZM8 4.00301C7.73478 4.00301 7.48043 4.10836 7.29289 4.2959C7.10536 4.48344 7 4.73779 7 5.00301C7 5.26822 7.10536 5.52258 7.29289 5.71011C7.48043 5.89765 7.73478 6.00301 8 6.00301C8.26522 6.00301 8.51957 5.89765 8.70711 5.71011C8.89464 5.52258 9 5.26822 9 5.00301C9 4.73779 8.89464 4.48344 8.70711 4.2959C8.51957 4.10836 8.26522 4.00301 8 4.00301Z" fill="#E4E4E4" fill-opacity="0.7"/>
</svg>
