<svg width="8" height="9" viewBox="0 0 8 9" fill="none" xmlns="http://www.w3.org/2000/svg">
<path d="M1 0.00305176C0.734784 0.00305176 0.48043 0.108409 0.292893 0.295945C0.105357 0.483482 0 0.737835 0 1.00305C5.66374e-05 1.26825 0.105451 1.52256 0.293 1.71005L2.586 4.00305L0.293 6.29605C0.105451 6.48354 5.66374e-05 6.73786 0 7.00305C0 7.26827 0.105357 7.52262 0.292893 7.71016C0.48043 7.8977 0.734784 8.00305 1 8.00305C1.26519 8.003 1.51951 7.8976 1.707 7.71005L4 5.41705L6.283 7.70005C6.37619 7.79592 6.48765 7.87213 6.61081 7.92418C6.73396 7.97622 6.8663 8.00304 7 8.00305C7.26522 8.00305 7.51957 7.8977 7.70711 7.71016C7.89464 7.52262 8 7.26827 8 7.00305C7.99994 6.73786 7.89455 6.48354 7.707 6.29605L5.414 4.00305L7.697 1.72005C7.79287 1.62686 7.86908 1.5154 7.92113 1.39224C7.97317 1.26909 7.99999 1.13675 8 1.00305C8 0.737835 7.89464 0.483482 7.70711 0.295945C7.51957 0.108409 7.26522 0.00305176 7 0.00305176C6.73481 0.0031084 6.48049 0.108503 6.293 0.296052L4 2.58905L1.717 0.306052C1.71369 0.302695 1.71036 0.299362 1.707 0.296052C1.51951 0.108503 1.26519 0.0031084 1 0.00305176Z" fill="#E4E4E4"/>
</svg>
